# xmcd
#
# Track frame offsets:
#	150
#	17803
#	25995
#	35890
#	49255
#	61997
#	71938
#	82533
#	93700
#	105170
#	119175
#	132895
#	143388
#	157588
#
# Disc length: 2225 seconds
#
# Revision: 8
# Processed by: cddbd v1.5.2PL0 Copyright (c) Steve Scherf et al.
# Submitted via: EasyCDDAExtractor 16.0.6.1
#
DISCID=b608af0e
DTITLE=Various Artist - C-059 Desperado CD 3
DYEAR=1900
DGENRE=Country
TTITLE0=Skeeter Davis - Always on My Mind
TTITLE1=Johnny Cash - Guess Things Happen That way
TTITLE2=Hank Locklin - Please Help me I Am Falling
TTITLE3=Patti Page - Tennesse Waltz
TTITLE4=Billie Jo Spears - 57 Chevrolet
TTITLE5=Dave Duddley - Six day's On The Road
TTITLE6=Faron Young - If You Aint Lovin'
TTITLE7=Anne Murray - Last Thing On My Mind
TTITLE8=Kenny Rogers - Me And Bobby Mc Ghee
TTITLE9=Lynn Anderson - Cry
TTITLE10=Willie Nelson - You'll Always Have Someone
TTITLE11=Waylon Jennings - Lorena
TTITLE12=Glen Campbell - Rhinestone Cowboy
TTITLE13=The Bellamy Brothers - Let Your Love Flow
EXTD=
EXTT0=
EXTT1=
EXTT2=
EXTT3=
EXTT4=
EXTT5=
EXTT6=
EXTT7=
EXTT8=
EXTT9=
EXTT10=
EXTT11=
EXTT12=
EXTT13=
PLAYORDER=
